<svg xmlns="http://www.w3.org/2000/svg" xml:space="preserve" viewBox="0 0 384 256">
  <style>
    .st1{display:inline}.st2{fill:#273d82}.st3{fill:#4b9bd5}.st5,.st6{display:inline;fill:#042e2e}.st6{fill-rule:evenodd;clip-rule:evenodd}
  </style>
  <g id="Layer_4">
    <linearGradient id="SVGID_1_" x1=".415" x2="224.872" y1="38.88" y2="38.88" gradientTransform="matrix(1.7108 0 0 -.5845 -.71 151.227)" gradientUnits="userSpaceOnUse">
      <stop offset="0" stop-color="#872266"/>
      <stop offset="1" stop-color="#4f2455"/>
    </linearGradient>
    <path fill="url(#SVGID_1_)" d="m305.4 76.7 32-5.6v120.6h-32v-115zm46.6 0v114.9h32V71.1l-32 5.6zm-92.1 114.9h32v-88.2h-32v88.2zM48.6 115.9c-4.1-.3-13.4-.9-13.4-9.1 0-10 13.5-10 18.5-10 8.9 0 20.4 2.6 28.6 5 0 0 4.6 1.6 8.5 3.2l.3.1V77.7l-.5-.1c-9.7-3.3-20.9-6.5-41.9-6.5-36 0-48.7 20.6-48.7 38.3 0 10.2 4.5 34.2 45.7 37 3.5.2 12.8.7 12.8 9.3 0 7.1-7.6 11.3-20.4 11.3-14 0-27.6-3.5-35.8-6.9v28.2c12.3 3.2 26.3 4.8 42.6 4.8 35.2 0 51-19.5 51-38.9 0-22.1-17.6-36.3-47.3-38.3zm193.3-13.7c-29.5.9-44.5 14-44.5 39.9v49.6h32.2v-40.5c0-15.5 2-22.2 20.8-22.8v-25.8c-3.2-.6-8.5-.4-8.5-.4zm-86.7 1.2c-.7 1.7-5.8 16-18.2 30.7v-63l-33 6.4v114.1h33v-35.3c9.6 14.1 14.3 35.3 14.3 35.3h39.5c-3.9-16-21-45.4-21-45.4 15.3-19.1 22.1-39.5 23.2-42.9l-37.8.1zM275.8 95c8.7 0 15.8-6.9 15.8-15.5s-7-15.5-15.8-15.5c-8.7 0-15.7 6.9-15.7 15.5 0 8.5 7.1 15.5 15.7 15.5z"/>
  </g>
</svg>