<svg xmlns="http://www.w3.org/2000/svg" xml:space="preserve" viewBox="0 0 384 256">
  <style>
    .st1{display:inline}.st2{fill:#273d82}.st3{fill:#4b9bd5}.st5,.st6{fill:#042e2e}.st6{fill-rule:evenodd;clip-rule:evenodd}
  </style>
  <g id="Layer_3">
    <path d="M189.2 114.4h-7.8v-12.8h7.8v-5.2c0-12.4 9.2-18.7 21.4-18.7 3.9 0 7.9.5 11.6 1.7v12.2c-2.6-.9-5.4-1.3-8.2-1.3-5.4 0-8 2.5-8 7.3v4h16.9v12.8h-17.1v41.8h-16.6v-41.8zM101.2 135.5v-1.1h-16c-4.5 0-7.2 2.1-7.2 5.1 0 4.1 3.6 6.3 9.6 6.3 8.6 0 13.6-3.8 13.6-10.3zm-38.1 5.2c0-8.8 6.3-15.2 20.6-15.2h17.5v-3.6c0-6.5-3.7-9.1-11.3-9.1-6.2 0-9.8 2.6-9.8 7 0 .3 0 1.2.1 2.3H65c-.2-1-.2-2.1-.2-3.1 0-10.9 9.6-17.3 25.9-17.3 16.3 0 27.1 7.6 27.1 22v32.6h-16.5c.5-3.6.8-7.3.8-10.9h-.1c-1.6 7.6-7.7 11.7-17.5 11.7-12.7-.1-21.4-5.5-21.4-16.4z" class="st5"/>
    <path d="M136.1 101.5h-16.4l14.6 54.6H147c-2.4 6.5-6.1 8.9-11.9 8.9-2.4 0-4.8-.3-7.1-.9v12.7c3.4 1.1 7 1.6 10.6 1.5 10.4 0 19.3-6.3 23.9-22.2l14.7-54.6h-16.4l-12.2 48.8-12.5-48.8z" class="st6"/>
    <path d="M263 135.6v-1.1h-16c-4.4 0-7.2 2.1-7.2 5.1 0 4.1 3.6 6.3 9.7 6.3 8.5-.1 13.4-3.9 13.5-10.3zm-38.1 5.1c0-8.8 6.3-15.2 20.6-15.2H263v-3.6c0-6.5-3.7-9.1-11.3-9.1-6.2 0-9.8 2.6-9.8 7 0 .8 0 1.5.1 2.3h-15.2c-.1-1-.2-2.1-.2-3.1 0-10.9 9.7-17.3 25.9-17.3 17.1 0 27.1 7.6 27.1 22v32.6H263c.4-3.6.7-7.2.8-10.9h-.1c-1.6 7.6-7.7 11.7-17.5 11.7-12.6-.1-21.3-5.5-21.3-16.4zM285.7 138h14.8c0 5 2.5 8.2 11.9 8.2 8.6 0 11.6-2.5 11.6-6.4 0-1.9-1-3.5-3.9-4.1-4.1-.8-8.3-1.3-12.5-1.5-7.7-.7-13.7-1.9-16.9-4.1-1.6-1.2-2.9-2.8-3.8-4.7-.9-1.8-1.3-3.8-1.3-5.9 0-11.6 11.9-18 26.8-18 17.6 0 25.6 6.7 25.6 19.3h-14.5c-.1-5.6-2.7-8.6-10.9-8.6-7.4 0-10.6 2.5-10.6 6.2-.1 1.1.2 2.3 1 3.2.7.9 1.8 1.5 2.9 1.6 4.4.8 8.8 1.3 13.2 1.6 6.6.7 11.3 1.3 15.3 3.6 1.8 1.1 3.4 2.6 4.4 4.5 1.1 1.9 1.6 4 1.5 6.1 0 11.3-9.6 17.9-28 17.9-18.7 0-26.6-8.1-26.6-18.9z" class="st5"/>
    <path d="M352.2 82.4h19.1v4.4c0 8-6.5 14.6-14.5 14.6H384v12.8h-17.2v22.3c0 5.6 2.6 7.3 9.2 7.3 2.5 0 5-.3 7.5-.8v12.5c-3.4.7-6.9 1.1-10.4 1.2-16.7 0-22.7-7.4-22.7-19.3v-23.2h-7.8v-12.8h9.8l-.2-19z" class="st6"/>
    <path d="M42.6 128.7c0-8.7-5-14.5-12.5-14.5-8.2 0-13.8 6-13.8 15v2.4c0 7.7 5.5 12.8 13.9 12.8 7.4-.1 12.4-6.4 12.4-15.7zM0 102.4h16.4l-.3 10.9h.1c2.1-7.4 8.9-11.8 18.1-11.8 15 0 24.7 10.6 24.7 26.5 0 17.4-9.8 28.9-24.8 28.9-9.8 0-15.8-4-18.2-10.5.2 3.6.5 8.9.5 10.8v20.3H0v-75.1z" class="st5"/>
  </g>
</svg>