<svg xmlns="http://www.w3.org/2000/svg" xml:space="preserve" viewBox="0 0 384 256">
  <style>
    .st0{fill:#273d82}.st1{fill:#4b9bd5}.st2{display:none}.st5,.st6{display:inline;fill:#042e2e}.st6{fill-rule:evenodd;clip-rule:evenodd}
  </style>
  <g id="Layer_1">
    <g id="g10" transform="matrix(1.25 0 0 -1.25 0 140.375)">
      <g id="g12" transform="scale(.1)">
        <path id="path14" d="M368.6 507H129.7c-16.4 0-30.3-11.8-32.8-27.9L.3-131.7c-1.9-12 7.4-22.9 19.7-22.9h114c16.4 0 30.3 11.8 32.8 28l26.1 164.7c2.5 16.1 16.5 28 32.8 28h75.6c157.4 0 248.2 75.9 272 226.4 10.7 65.8.5 117.5-30.5 153.8-34 39.6-94.2 60.7-174.2 60.7zm27.6-223.1c-13.1-85.5-78.6-85.5-141.9-85.5h-36.1L243.5 358c1.5 9.6 9.9 16.8 19.7 16.8h16.5c43.1 0 83.9 0 104.9-24.5 12.6-14.6 16.4-36.4 11.6-66.4" class="st0"/>
        <path id="path16" d="M1082.9 286.7H968.5c-9.7 0-18.2-7.1-19.7-16.8l-5.1-31.9-8 11.6c-24.8 35.8-80 47.8-135.1 47.8-126.4 0-234.4-95.5-255.5-229.4-10.9-66.8 4.6-130.7 42.6-175.2 34.9-41 84.8-58 144.1-58 101.9 0 158.4 65.3 158.4 65.3l-5.1-31.7c-1.9-12.1 7.4-23 19.6-23h103.1c16.4 0 30.2 11.8 32.8 28l61.8 390.4c2 12-7.3 22.9-19.5 22.9zm-159.5-222C912.4-.5 860.5-44.2 794.3-44.2c-33.2 0-59.8 10.6-76.8 30.8-16.9 20-23.3 48.4-18 80.1 10.3 64.6 63.1 109.8 128.2 109.8 32.5 0 58.9-10.8 76.3-31.1 17.5-20.6 24.4-49.2 19.4-80.7" class="st0"/>
        <path id="path18" d="M1692.3 286.7h-115c-11 0-21.3-5.4-27.5-14.5L1391.2 39.3 1324 263c-4.2 14-17.2 23.6-31.9 23.6h-113c-13.7 0-23.3-13.4-18.9-26.3l126.7-370.5-119.1-167.6c-9.4-13.2.1-31.3 16.2-31.3h114.8c10.9 0 21.1 5.3 27.3 14.2l382.4 550.3c9.3 13.2-.1 31.3-16.2 31.3" class="st0"/>
        <path id="path20" d="M2073 507h-239c-16.3 0-30.2-11.8-32.8-27.9l-96.6-610.8c-1.9-12 7.4-22.9 19.6-22.9h122.6c11.4 0 21.1 8.3 22.9 19.6l27.4 173.1c2.5 16.1 16.5 28 32.8 28h75.6c157.4 0 248.2 75.9 272 226.4 10.7 65.8.4 117.5-30.5 153.8-33.9 39.6-94.1 60.7-174 60.7zm27.5-223.1c-13-85.5-78.5-85.5-141.9-85.5h-36l25.3 159.6c1.5 9.6 9.8 16.8 19.6 16.8h16.5c43.1 0 83.9 0 104.9-24.5 12.6-14.6 16.4-36.4 11.6-66.4" class="st1"/>
        <path id="path22" d="M2787.2 286.7h-114.4c-9.8 0-18.2-7.1-19.6-16.8l-5.1-31.9-8 11.6c-24.8 35.8-80 47.8-135.1 47.8-126.4 0-234.4-95.5-255.4-229.4-10.9-66.8 4.6-130.7 42.6-175.2 34.9-41 84.8-58 144.1-58 101.9 0 158.4 65.3 158.4 65.3l-5.1-31.7c-1.9-12.1 7.4-23 19.7-23h103c16.3 0 30.2 11.8 32.8 28l61.9 390.4c1.8 12-7.6 22.9-19.8 22.9zm-159.5-222c-11-65.2-62.9-108.9-129.1-108.9-33.2 0-59.8 10.6-76.8 30.8-16.9 20-23.3 48.4-18 80.1 10.4 64.6 63.1 109.8 128.2 109.8 32.5 0 58.9-10.8 76.3-31.1 17.5-20.6 24.4-49.2 19.4-80.7" class="st1"/>
        <path id="path24" d="M2922.1 490.2 2824-131.7c-1.9-12 7.4-22.9 19.6-22.9h98.6c16.4 0 30.3 11.8 32.8 28l96.7 610.7c1.9 12.1-7.4 23-19.6 23h-110.4c-9.7-.1-18.1-7.2-19.6-16.9" class="st1"/>
      </g>
    </g>
  </g>
</svg>