<svg xmlns="http://www.w3.org/2000/svg" xml:space="preserve" viewBox="0 0 384 256">
  <style>
    .st1{display:inline}.st2{fill:#273d82}.st3{fill:#4b9bd5}.st5,.st6{display:inline;fill:#042e2e}.st6{fill-rule:evenodd;clip-rule:evenodd}
  </style>
  <g id="Layer_5">
    <path fill="#558cc9" d="m24.7 108.5-3.2 11.9 18.3-11.9-12 45.1h12.1L57.6 87"/>
    <path fill="#192953" d="m5 134.6-5 18.9h24.9L35.1 115 5 134.6zm86.4-16.7c-.6 2.3-1.8 4-3.5 5-1.7 1.1-4.2 1.6-7.3 1.6h-10l3.5-13.3h10c3.1 0 5.3.5 6.5 1.6s1.4 2.8.8 5.1m10.4-.2c1.3-4.8.8-8.5-1.6-11.1-2.3-2.6-6.4-3.9-12.3-3.9H65.6l-13.5 50.8H63l5.4-20.5h7.1c1.6 0 2.9.3 3.8.8.9.5 1.5 1.5 1.6 2.8l1.9 16.9h11.7l-1.9-15.8c-.4-3.5-2-5.6-4.8-6.2 3.6-1 6.6-2.8 9-5.2 2.5-2.3 4.2-5.3 5-8.6m26.4 17.7c-.9 3.4-2.3 6-4.2 7.9-1.9 1.8-4.1 2.7-6.8 2.7s-4.5-.9-5.5-2.7c-1-1.8-1-4.4-.1-7.7.9-3.4 2.3-6 4.3-7.9 2-1.9 4.3-2.9 6.9-2.9 2.6 0 4.4.9 5.3 2.7 1 1.8 1 4.5.1 7.9zm4.8-18-1.4 5.1c-.6-1.8-1.7-3.3-3.4-4.4-1.7-1.1-3.8-1.6-6.3-1.6-3.1 0-6 .8-8.8 2.4-2.8 1.6-5.3 3.9-7.4 6.8-2.1 2.9-3.6 6.2-4.6 9.9-1 3.7-1.2 7-.6 9.8.6 2.8 1.9 5 3.9 6.5s4.5 2.3 7.6 2.3c2.5 0 4.9-.5 7.1-1.6 2.2-1 4.2-2.5 5.8-4.3l-1.4 5.4H134l9.6-36.2-10.6-.1zm48.4 0h-30.6l-2.1 8.1h17.8L142.9 146l-2 7.6h31.6l2.1-8.1h-19.1l23.9-20.9m28.9 10.7c-1 3.6-2.4 6.2-4.2 8-1.9 1.8-4.1 2.6-6.7 2.6-5.5 0-7.3-3.5-5.4-10.6.9-3.5 2.4-6.2 4.2-8 1.9-1.8 4.2-2.7 6.9-2.7 2.6 0 4.4.9 5.3 2.7.8 1.8.8 4.5-.1 8m6.2-16.5c-2.4-1.5-5.5-2.3-9.3-2.3-3.8 0-7.3.8-10.6 2.3-3.2 1.5-6.1 3.8-8.3 6.6-2.3 2.8-3.9 6.2-4.9 10-1 3.8-1.1 7.1-.3 10 .8 2.8 2.4 5 4.8 6.6 2.5 1.5 5.6 2.3 9.4 2.3 3.8 0 7.3-.8 10.5-2.3 3.2-1.5 6-3.7 8.3-6.6 2.3-2.9 3.9-6.2 4.9-10 1-3.8 1.1-7.1.4-10-.9-3-2.5-5.2-4.9-6.6m37.5 8.3 2.7-9.9c-.9-.5-2.1-.7-3.6-.7-2.4 0-4.7.6-7 1.8-1.9 1-3.5 2.5-4.9 4.3l1.4-5.3H230l-9.7 36.2H231l5-18.9c.7-2.7 2-4.9 3.9-6.5 1.9-1.5 4.2-2.3 7.1-2.3 1.8.1 3.5.5 5 1.3m29.7 8.4c-.9 3.4-2.3 6-4.2 7.7-1.9 1.8-4.1 2.7-6.8 2.7-2.6 0-4.4-.9-5.4-2.7-1-1.8-1-4.4-.1-7.9.9-3.4 2.3-6.1 4.2-7.9 1.9-1.8 4.2-2.7 6.8-2.7 2.6 0 4.3.9 5.3 2.8 1 2 1 4.6.2 8m7.4-16.7c-2-1.6-4.5-2.4-7.6-2.4-2.7 0-5.2.6-7.7 1.9s-4.4 2.9-5.9 5.1v-.2l1.8-5.8h-10.4l-2.7 10-.1.3-10.8 41.3h10.7l5.5-20.8c.6 1.8 1.7 3.3 3.4 4.3s3.8 1.6 6.3 1.6c3.1 0 6.1-.8 8.9-2.3 2.8-1.5 5.3-3.7 7.3-6.5 2.1-2.8 3.6-6.1 4.6-9.8 1-3.7 1.2-7 .6-9.9-.6-2.9-1.9-5.2-3.9-6.8m35.4 16.5c-.9 3.4-2.3 6-4.2 7.8-1.9 1.8-4.1 2.7-6.8 2.7s-4.5-.9-5.5-2.7c-1-1.8-1-4.4-.1-7.7.9-3.4 2.3-6 4.3-7.9 2-1.9 4.3-2.9 6.9-2.9 2.6 0 4.4.9 5.3 2.7 1 2 1 4.6.1 8zm4.8-18-1.4 5.1c-.6-1.8-1.7-3.3-3.4-4.4-1.7-1.1-3.8-1.6-6.3-1.6-3.1 0-6 .8-8.8 2.4-2.8 1.6-5.3 3.8-7.4 6.7-2.1 2.9-3.7 6.2-4.6 9.9-1 3.7-1.2 7-.6 9.8.6 2.8 1.9 5 3.9 6.5s4.5 2.3 7.6 2.3c2.5 0 4.9-.5 7.1-1.6 2.2-1 4.2-2.5 5.7-4.3l-1.4 5.4h10.5l9.6-36.2h-10.5zm54.7.1H373.6l-1.7 2.4-.4.6-.2.3-13.6 19.2-2.8-22.5h-11.2l5.7 34.2-12.6 17.4H348l3-4.3c.1-.1.2-.2.3-.4l3.5-5.1.1-.1 15.8-22.6 13.3-19.1z"/>
  </g>
</svg>